<svg id="SvgjsSvg1001" width="288" height="288" xmlns="http://www.w3.org/2000/svg" version="1.1" xmlns:xlink="http://www.w3.org/1999/xlink" xmlns:svgjs="http://svgjs.com/svgjs"><defs id="SvgjsDefs1002"></defs><g id="SvgjsG1008"><svg xmlns="http://www.w3.org/2000/svg" display="block" preserveAspectRatio="none" viewBox="0 0 2048 2048" width="288" height="288"><path fill="#FFF" d="M 0 0 L 2048 0 L 2048 2048 L 0 2048 L 0 0 z" class="svgShape colorffffff-0 selectable"></path><path fill="#1b36ec" d="M 369.845 234.413 C 370.932 234.369 372.019 234.333 373.107 234.304 C 427.16 233.142 485.412 234.642 539.905 234.551 L 923.011 234.114 L 1085.92 234.039 C 1103.38 234.015 1138.96 233.178 1154.99 234.528 C 1163.88 235.277 1211.53 285.105 1220.87 294.183 C 1264 335.813 1306.88 377.697 1349.51 419.833 C 1377.48 447.299 1407.53 473.348 1434.44 501.796 C 1438.2 505.773 1441.48 509.918 1443.46 515.096 C 1448.7 528.852 1445.59 592.925 1445.62 612.115 C 1445.73 700.936 1443.48 790.099 1445.8 878.873 C 1474.32 885.503 1501.19 893.277 1529.41 900.4 L 1656.04 931.65 L 1727.03 949.715 C 1744.89 954.21 1765.04 957.893 1781.6 965.931 C 1785.86 967.998 1788.25 977.848 1788.32 982.178 C 1788.69 1003.4 1788.02 1024.77 1788.17 1046.01 C 1788.01 1084.89 1789.92 1124.73 1785.93 1163.43 C 1782.49 1194.56 1777.05 1225.43 1769.66 1255.86 C 1737.33 1389.83 1672.94 1507.13 1563.96 1594.26 C 1545.39 1609.1 1523.9 1622.94 1503.62 1635.33 C 1484.61 1646.8 1464.62 1657.37 1444.96 1667.7 C 1445.12 1709.53 1447.68 1739.57 1419.26 1774.09 C 1382.26 1819.01 1334.73 1812.06 1282.8 1812.01 L 1167.85 1812.06 L 763.752 1812 L 488.922 1812.16 L 407.745 1812.63 C 366.385 1812.96 330.446 1815.5 296.669 1786.1 C 275.656 1767.81 261.566 1741.43 260.675 1713.29 C 259.861 1687.57 260.564 1661.54 260.597 1635.77 L 260.933 1474.19 L 261.105 997.198 L 260.929 550.254 L 260.955 414.441 C 260.922 390.057 260.071 364.107 261.442 339.874 C 264.745 281.457 312.333 238.253 369.845 234.413 z" class="svgShape color2c2d38-1 selectable"></path><path fill="#187bca" d="M 407.615 282.501 C 646.723 281.479 885.834 281.679 1124.94 283.101 L 1125.14 399.51 C 1125.14 420.352 1124.08 461.892 1128.33 480.474 C 1131.89 496.376 1139.68 511.019 1150.88 522.852 C 1162.68 535.179 1177.82 543.788 1194.44 547.619 C 1214.7 552.47 1248.13 550.49 1269.86 550.704 C 1311.92 551.119 1354.18 549.998 1396.28 550.968 C 1397.03 587.165 1396.39 625.946 1396.34 662.261 C 1396.09 734.67 1396.24 807.08 1396.77 879.487 C 1370.09 885.691 1342.96 893.224 1316.32 900.086 L 1208.8 927.369 L 1124.72 949.022 C 1112.06 952.314 1078.95 958.753 1068.92 967.294 C 1062.3 972.933 1062.98 992.991 1062.95 1002.29 C 1062.79 1064.05 1062.13 1124.86 1067.19 1186.56 C 1068.93 1206.47 1071.56 1226.29 1075.07 1245.96 C 1102.69 1403.02 1180.83 1526.77 1311.35 1618.11 C 1339.37 1637.64 1366.89 1649.23 1394.05 1666.47 C 1394.48 1692.07 1399.6 1724.9 1380.41 1744.37 C 1367.18 1757.79 1353.61 1763.91 1334.56 1764.03 C 1304.36 1764.23 1274.19 1764.09 1243.99 1764.07 L 1097 1764.2 L 708.927 1764.24 L 482.099 1764.53 L 408.045 1764.6 C 393.372 1764.64 376.617 1765.62 362.215 1764.07 C 330.233 1760.63 310.306 1735.47 310.237 1704.55 C 309.911 1558.19 310.098 1411.96 310.455 1265.65 L 310.104 783.972 L 310.173 479.599 L 310.237 391.459 C 310.198 360.763 304.906 325.033 328.395 301.603 C 351.095 278.96 378.255 282.54 407.615 282.501 z" class="svgShape colorffffff-2 selectable"></path><path fill="#000000" d="M645.481 769.506L1023.89 769.561 1171.66 769.056C1194.61 769.053 1218.01 768.636 1240.94 769.268 1247.62 769.651 1251.72 770.256 1257 774.578 1271.64 786.559 1266.64 815.152 1246.55 817.187 1230.98 818.763 1212.43 817.796 1196.37 817.804L1078.25 817.504 662.072 817.254C624.87 817.085 587.666 817.129 550.464 817.387 528.121 817.545 505.7 818.006 483.4 817.417 476.968 817.247 470.805 814.621 466.886 809.949 456.282 798.197 461.026 771.667 478.892 770.352 496.238 769.075 515.159 769.635 532.638 769.632L645.481 769.506zM481.094 1518.29C551.73 1516.55 628.908 1518.01 700.026 1518.03L1128.45 1517.75C1139.69 1529.41 1159.74 1554.71 1171.6 1568.41L1149.02 1568.23 739.5 1568.62 579.173 1568.72C549.953 1568.76 520.563 1568.91 491.34 1568.7 486.451 1568.45 479.611 1568.08 475.312 1565.77 462.93 1559.14 457.515 1544.76 463.955 1531.9 468.076 1523.68 472.593 1520.75 481.094 1518.29zM481.528 1331.16C504.089 1330.44 529.724 1331.02 552.47 1331.02L690.299 1330.95 910.019 1330.94C953.783 1330.68 997.549 1330.71 1041.31 1331.03 1045.69 1348.19 1052.01 1364.17 1057.05 1380.87L1039.01 1380.87 681.619 1380.76 552.366 1380.99C531.58 1381.02 511.419 1381.17 489.943 1381.18 469.068 1381.19 454.497 1364.16 463.847 1343.69 466.985 1336.82 474.325 1333.1 481.528 1331.16zM483.87 1144.25C502.431 1143.47 525.726 1144.14 544.584 1144.15L660.502 1144.19 1010.1 1144.01C1010.13 1162.82 1010.91 1175.48 1013.38 1194.09L989.016 1193.68C949.387 1192.58 904.393 1193.84 864.341 1193.84L625.919 1193.8C593.777 1193.98 561.635 1193.94 529.494 1193.7 517.21 1193.66 479.033 1195.98 471.202 1189.81 452.185 1174.8 458.759 1148.3 483.87 1144.25zM486.221 959.437C521.515 958.144 562.738 959.427 598.514 959.697L753.337 959.818 916.091 960.021C946.67 960.025 985.107 959.048 1015.11 960.773 1003.75 977.522 1006.11 987.815 1007.18 1007.13L991.5 1007.23 652.499 1007.08 543.42 1007.25C524.269 1007.27 505.197 1007.44 485.984 1007.04 474.103 1007.3 462.367 999.848 461.468 987.01 460.213 969.099 470.09 961.11 486.221 959.437zM485.36 537.353C491.312 537.107 497.573 537.22 503.556 537.256 576.545 537.694 649.675 536.13 722.625 537.98 752.327 538.733 755.67 581.335 723.801 585.808 644.094 583.668 563.976 586.073 484.259 584.748 479.845 584.675 475.744 583.308 472.131 580.818 466.891 577.254 463.287 571.749 462.116 565.521 459.356 550.398 471.172 539.52 485.36 537.353zM479.065 451.146C491.058 450.174 512.408 450.852 525.2 450.834L617.684 450.856C654.411 450.938 695.626 449.163 731.682 452.533 746.077 453.878 754.375 485.717 729.42 498.719 721.047 499.455 703.6 498.894 694.485 498.867L624.199 498.649 527.398 498.318C512.515 498.263 492.462 498.854 477.665 496.965 473.002 495.636 466.998 490.299 465.246 486.036 458.892 470.576 465.033 458.237 479.065 451.146z" class="svgShape color2c2d38-3 selectable"></path><path fill="#079e17" d="M 1422.37 924.152 C 1433.08 926.707 1444.32 929.757 1454.99 932.606 C 1548.42 957.539 1644.32 977.412 1737.08 1004.55 C 1736.88 1048.3 1738.41 1098.25 1735.5 1141.23 C 1732.01 1192.83 1717.59 1257.11 1701.96 1306.42 C 1653.84 1458.2 1564.62 1550.05 1426.24 1623.1 L 1423.56 1623.81 C 1416.19 1622.07 1398.64 1612 1391.48 1608.04 C 1336.93 1577.83 1290.32 1543.68 1248.07 1497.6 C 1161.56 1404.69 1120.65 1280.27 1113.96 1155.09 C 1111.4 1107.15 1111.13 1050.73 1113.03 1002.3 C 1150.83 994.21 1192.4 982.981 1229.88 973.409 L 1422.37 924.152 z" class="svgShape colorffffff-4 selectable"></path><path fill="#2C2D38" d="M 1418.39 989.239 C 1434.4 988.396 1453.05 1005.43 1466.49 1014.05 C 1489.17 1028.66 1513.5 1040.55 1538.96 1049.45 C 1558.65 1056.63 1578.93 1062.05 1599.58 1065.65 C 1613.49 1067.97 1643.32 1066.46 1647.57 1083.33 C 1652.6 1103.32 1649.42 1128.8 1649.32 1149.68 C 1649.2 1176.14 1648.97 1203.3 1647.24 1229.65 C 1646.44 1242.44 1645.05 1255.19 1643.1 1267.85 C 1635.4 1316.71 1616.74 1355.84 1588.07 1395.51 C 1547.01 1452.32 1492.43 1477.91 1430.69 1503.95 C 1429.87 1504.32 1429.04 1504.65 1428.21 1504.96 C 1427.24 1505.31 1424.74 1506.23 1423.75 1505.87 C 1332.83 1472.36 1251.97 1414.49 1218.79 1319.32 C 1211.78 1299.02 1206.85 1278.06 1204.08 1256.76 C 1197.8 1206.55 1203.21 1146.21 1202.09 1095.11 C 1201.5 1068.36 1233.7 1068.84 1253.83 1064.58 C 1295.89 1055.5 1336.15 1039.51 1372.98 1017.25 C 1386.25 1009.14 1405.16 993.042 1418.39 989.239 z" class="svgShape color2c2d38-5 selectable"></path><path fill="#0fde2f" d="M 1422.22 1036.94 C 1484.01 1077.19 1535.63 1097.5 1610.15 1106.16 C 1610.47 1129.76 1610.66 1153.35 1610.74 1176.95 C 1610.89 1227.74 1610.82 1266.94 1589 1315.13 C 1556.83 1386.2 1498.73 1433.22 1427.26 1460.59 C 1422.33 1462.38 1410.24 1456.8 1405.35 1454.52 C 1370.79 1438.4 1335.83 1418.42 1309.19 1390.76 C 1272.12 1352.29 1248.87 1302.6 1243.07 1249.49 C 1240.56 1226.99 1240.96 1205.39 1240.96 1182.81 C 1240.9 1157.07 1241.05 1131.32 1241.41 1105.58 C 1254.42 1102.37 1270.47 1100.51 1284.28 1097.21 C 1339.02 1084.16 1375.98 1068.61 1422.22 1036.94 z" class="svgShape colorffffff-6 selectable"></path><path fill="#2C2D38" d="M 1526.61 1157.27 C 1540.65 1157.61 1550.83 1166.69 1552.16 1181.17 C 1552.97 1189.95 1548.17 1195.6 1542.46 1201.66 C 1530.75 1214.07 1518.34 1225.96 1506.22 1238.03 C 1487.77 1256.71 1469.19 1275.28 1450.5 1293.72 C 1387.68 1355.49 1399.01 1359.88 1335.63 1297.24 C 1328.79 1290.99 1321.04 1284.55 1315.38 1277.27 C 1302.81 1261.12 1316.81 1237.2 1336.32 1237.15 C 1340.29 1237.12 1344.19 1238.21 1347.57 1240.28 C 1353.41 1243.88 1383.36 1274.91 1391.27 1282.56 C 1401.36 1273.52 1413.86 1260.3 1423.66 1250.56 L 1481.99 1193.03 C 1492.59 1182.62 1504.19 1170.47 1515.62 1161.11 C 1518.67 1158.61 1522.75 1157.94 1526.61 1157.27 z" class="svgShape color2c2d38-7 selectable"></path><path fill="#116799" d="M 1173.56 317.485 C 1179.72 321.856 1193.03 335.23 1198.92 340.908 L 1251.63 392.282 L 1329.88 468.138 C 1337.28 475.398 1357.87 494.346 1363.3 501.6 C 1316.7 501.916 1270.09 502.166 1223.5 502.273 C 1207.3 502.31 1197.14 500.471 1185.22 488.317 C 1173.55 476.787 1174.05 459.58 1174.55 444.153 C 1175.92 402.188 1172.74 359.337 1173.56 317.485 z" class="svgShape colorffffff-8 selectable"></path></svg></g></svg>